<svg width="27" height="33" viewBox="0 0 27 33" fill="none" xmlns="http://www.w3.org/2000/svg">
<g filter="url(#filter0_d_4_15)">
<path d="M13.4826 0C8.43046 0 4.32031 4.11015 4.32031 9.16233C4.32031 11.4832 5.78268 14.7623 8.66697 18.9087C10.7752 21.9397 12.8486 24.2851 12.936 24.3835L13.4826 25L14.0295 24.3835C14.1166 24.2851 16.1901 21.9397 18.2985 18.9087C21.1826 14.7623 22.6452 11.4832 22.6452 9.16233C22.6452 4.11015 18.5348 0 13.4826 0V0ZM17.1066 18.0622C15.6816 20.1122 14.2414 21.8765 13.4826 22.7766C12.7258 21.879 11.2909 20.1214 9.86688 18.074C7.1945 14.2323 5.78191 11.1506 5.78191 9.16233C5.78191 4.91619 9.2365 1.4616 13.4826 1.4616C17.729 1.4616 21.1834 4.91619 21.1834 9.16233C21.1834 11.1485 19.7737 14.226 17.1066 18.0622Z" fill="#C8A35F"/>
<path d="M13.4826 3.38623C10.5009 3.38623 8.07512 5.812 8.07512 8.79375C8.07512 11.7755 10.5009 14.2015 13.4826 14.2015C16.4646 14.2015 18.8904 11.7755 18.8904 8.79375C18.8904 5.812 16.4646 3.38623 13.4826 3.38623ZM13.4826 12.7399C11.3069 12.7399 9.53672 10.9697 9.53672 8.79375C9.53672 6.61804 11.3069 4.84783 13.4826 4.84783C15.6585 4.84783 17.4288 6.61804 17.4288 8.79375C17.4288 10.9697 15.6585 12.7399 13.4826 12.7399Z" fill="#C8A35F"/>
</g>
<defs>
<filter id="filter0_d_4_15" x="-3" y="0" width="33" height="33" filterUnits="userSpaceOnUse" color-interpolation-filters="sRGB">
<feFlood flood-opacity="0" result="BackgroundImageFix"/>
<feColorMatrix in="SourceAlpha" type="matrix" values="0 0 0 0 0 0 0 0 0 0 0 0 0 0 0 0 0 0 127 0" result="hardAlpha"/>
<feOffset dy="4"/>
<feGaussianBlur stdDeviation="2"/>
<feComposite in2="hardAlpha" operator="out"/>
<feColorMatrix type="matrix" values="0 0 0 0 0 0 0 0 0 0 0 0 0 0 0 0 0 0 0.25 0"/>
<feBlend mode="normal" in2="BackgroundImageFix" result="effect1_dropShadow_4_15"/>
<feBlend mode="normal" in="SourceGraphic" in2="effect1_dropShadow_4_15" result="shape"/>
</filter>
</defs>
</svg>
